<mxfile host="app.diagrams.net" modified="2023-08-21T07:59:49.758Z" agent="Mozilla/5.0 (Windows NT 10.0; Win64; x64) AppleWebKit/537.36 (KHTML, like Gecko) Chrome/115.0.0.0 Safari/537.36" etag="jIHCQdP56uSCM3QEKOo8" version="21.6.8" type="github">
  <diagram name="Страница — 1" id="JxjHVT8tWZJoRaEshpQW">
    <mxGraphModel dx="1134" dy="663" grid="1" gridSize="10" guides="1" tooltips="1" connect="1" arrows="1" fold="1" page="1" pageScale="1" pageWidth="827" pageHeight="1169" math="0" shadow="0">
      <root>
        <mxCell id="0" />
        <mxCell id="1" parent="0" />
        <mxCell id="pIXMn5RNcv90FsIHvOFB-1" value="" style="rounded=0;whiteSpace=wrap;html=1;rotation=90;" vertex="1" parent="1">
          <mxGeometry x="393.75" y="191.25" width="207.5" height="75" as="geometry" />
        </mxCell>
        <mxCell id="pIXMn5RNcv90FsIHvOFB-2" value="" style="rounded=0;whiteSpace=wrap;html=1;" vertex="1" parent="1">
          <mxGeometry x="300" y="130" width="80" height="80" as="geometry" />
        </mxCell>
        <mxCell id="pIXMn5RNcv90FsIHvOFB-3" value="" style="whiteSpace=wrap;html=1;aspect=fixed;" vertex="1" parent="1">
          <mxGeometry x="300" y="250" width="80" height="80" as="geometry" />
        </mxCell>
        <mxCell id="pIXMn5RNcv90FsIHvOFB-4" value="" style="endArrow=classic;startArrow=classic;html=1;rounded=0;entryX=0.217;entryY=0.982;entryDx=0;entryDy=0;entryPerimeter=0;exitX=1;exitY=0.5;exitDx=0;exitDy=0;" edge="1" parent="1" source="pIXMn5RNcv90FsIHvOFB-2" target="pIXMn5RNcv90FsIHvOFB-1">
          <mxGeometry width="50" height="50" relative="1" as="geometry">
            <mxPoint x="380" y="197" as="sourcePoint" />
            <mxPoint x="430" y="145" as="targetPoint" />
            <Array as="points" />
          </mxGeometry>
        </mxCell>
        <mxCell id="pIXMn5RNcv90FsIHvOFB-5" value="" style="endArrow=classic;startArrow=classic;html=1;rounded=0;entryX=0.333;entryY=0.992;entryDx=0;entryDy=0;entryPerimeter=0;exitX=1;exitY=0.5;exitDx=0;exitDy=0;" edge="1" parent="1">
          <mxGeometry width="50" height="50" relative="1" as="geometry">
            <mxPoint x="380" y="289.5" as="sourcePoint" />
            <mxPoint x="461" y="289.5" as="targetPoint" />
            <Array as="points" />
          </mxGeometry>
        </mxCell>
        <mxCell id="pIXMn5RNcv90FsIHvOFB-6" value="http" style="text;strokeColor=none;align=center;fillColor=none;html=1;verticalAlign=middle;whiteSpace=wrap;rounded=0;" vertex="1" parent="1">
          <mxGeometry x="393.75" y="135" width="60" height="30" as="geometry" />
        </mxCell>
        <mxCell id="pIXMn5RNcv90FsIHvOFB-7" value="http" style="text;strokeColor=none;align=center;fillColor=none;html=1;verticalAlign=middle;whiteSpace=wrap;rounded=0;" vertex="1" parent="1">
          <mxGeometry x="393.75" y="260" width="60" height="30" as="geometry" />
        </mxCell>
        <mxCell id="pIXMn5RNcv90FsIHvOFB-8" value="client n&lt;br&gt;" style="text;strokeColor=none;align=center;fillColor=none;html=1;verticalAlign=middle;whiteSpace=wrap;rounded=0;" vertex="1" parent="1">
          <mxGeometry x="310" y="275" width="60" height="30" as="geometry" />
        </mxCell>
        <mxCell id="pIXMn5RNcv90FsIHvOFB-9" value="client 1&lt;br&gt;" style="text;strokeColor=none;align=center;fillColor=none;html=1;verticalAlign=middle;whiteSpace=wrap;rounded=0;" vertex="1" parent="1">
          <mxGeometry x="310" y="155" width="60" height="30" as="geometry" />
        </mxCell>
        <mxCell id="pIXMn5RNcv90FsIHvOFB-10" value="api gate&lt;br&gt;way" style="text;strokeColor=none;align=center;fillColor=none;html=1;verticalAlign=middle;whiteSpace=wrap;rounded=0;" vertex="1" parent="1">
          <mxGeometry x="470" y="220" width="60" height="30" as="geometry" />
        </mxCell>
        <mxCell id="pIXMn5RNcv90FsIHvOFB-11" value="" style="endArrow=classic;startArrow=classic;html=1;rounded=0;entryX=0.333;entryY=0.992;entryDx=0;entryDy=0;entryPerimeter=0;exitX=1;exitY=0.5;exitDx=0;exitDy=0;" edge="1" parent="1">
          <mxGeometry width="50" height="50" relative="1" as="geometry">
            <mxPoint x="537" y="148" as="sourcePoint" />
            <mxPoint x="618" y="148" as="targetPoint" />
            <Array as="points" />
          </mxGeometry>
        </mxCell>
        <mxCell id="pIXMn5RNcv90FsIHvOFB-12" value="" style="endArrow=classic;startArrow=classic;html=1;rounded=0;entryX=0.333;entryY=0.992;entryDx=0;entryDy=0;entryPerimeter=0;exitX=1;exitY=0.5;exitDx=0;exitDy=0;" edge="1" parent="1">
          <mxGeometry width="50" height="50" relative="1" as="geometry">
            <mxPoint x="536" y="310" as="sourcePoint" />
            <mxPoint x="617" y="310" as="targetPoint" />
            <Array as="points" />
          </mxGeometry>
        </mxCell>
        <mxCell id="pIXMn5RNcv90FsIHvOFB-14" value="payment&lt;br&gt;service" style="rounded=1;whiteSpace=wrap;html=1;" vertex="1" parent="1">
          <mxGeometry x="617" y="120" width="120" height="60" as="geometry" />
        </mxCell>
        <mxCell id="pIXMn5RNcv90FsIHvOFB-15" value="order&lt;br&gt;role&lt;br&gt;users&lt;br&gt;and other&lt;br&gt;monolit/service" style="rounded=1;whiteSpace=wrap;html=1;" vertex="1" parent="1">
          <mxGeometry x="617" y="270" width="120" height="80" as="geometry" />
        </mxCell>
        <mxCell id="pIXMn5RNcv90FsIHvOFB-18" value="main&lt;br&gt;db" style="strokeWidth=2;html=1;shape=mxgraph.flowchart.database;whiteSpace=wrap;" vertex="1" parent="1">
          <mxGeometry x="767" y="270" width="60" height="80" as="geometry" />
        </mxCell>
        <mxCell id="pIXMn5RNcv90FsIHvOFB-19" value="payment&lt;br&gt;db" style="strokeWidth=2;html=1;shape=mxgraph.flowchart.database;whiteSpace=wrap;" vertex="1" parent="1">
          <mxGeometry x="767" y="110" width="60" height="80" as="geometry" />
        </mxCell>
        <mxCell id="pIXMn5RNcv90FsIHvOFB-22" value="" style="endArrow=classic;startArrow=classic;html=1;rounded=0;entryX=0;entryY=0.5;entryDx=0;entryDy=0;entryPerimeter=0;" edge="1" parent="1" target="pIXMn5RNcv90FsIHvOFB-19">
          <mxGeometry width="50" height="50" relative="1" as="geometry">
            <mxPoint x="737" y="150" as="sourcePoint" />
            <mxPoint x="787" y="100" as="targetPoint" />
          </mxGeometry>
        </mxCell>
        <mxCell id="pIXMn5RNcv90FsIHvOFB-24" value="" style="endArrow=classic;startArrow=classic;html=1;rounded=0;entryX=0;entryY=0.5;entryDx=0;entryDy=0;entryPerimeter=0;" edge="1" parent="1" target="pIXMn5RNcv90FsIHvOFB-18">
          <mxGeometry width="50" height="50" relative="1" as="geometry">
            <mxPoint x="737" y="310" as="sourcePoint" />
            <mxPoint x="787" y="260" as="targetPoint" />
          </mxGeometry>
        </mxCell>
        <mxCell id="pIXMn5RNcv90FsIHvOFB-27" value="amqp&lt;br&gt;" style="text;html=1;align=center;verticalAlign=middle;resizable=0;points=[];autosize=1;strokeColor=none;fillColor=none;" vertex="1" parent="1">
          <mxGeometry x="552" y="118" width="50" height="30" as="geometry" />
        </mxCell>
        <mxCell id="pIXMn5RNcv90FsIHvOFB-28" value="http|amqp" style="text;html=1;align=center;verticalAlign=middle;resizable=0;points=[];autosize=1;strokeColor=none;fillColor=none;" vertex="1" parent="1">
          <mxGeometry x="537" y="260" width="80" height="30" as="geometry" />
        </mxCell>
        <mxCell id="pIXMn5RNcv90FsIHvOFB-50" value="" style="rounded=0;whiteSpace=wrap;html=1;" vertex="1" parent="1">
          <mxGeometry x="300" y="480" width="80" height="80" as="geometry" />
        </mxCell>
        <mxCell id="pIXMn5RNcv90FsIHvOFB-51" value="" style="whiteSpace=wrap;html=1;aspect=fixed;" vertex="1" parent="1">
          <mxGeometry x="300" y="600" width="80" height="80" as="geometry" />
        </mxCell>
        <mxCell id="pIXMn5RNcv90FsIHvOFB-54" value="http" style="text;strokeColor=none;align=center;fillColor=none;html=1;verticalAlign=middle;whiteSpace=wrap;rounded=0;" vertex="1" parent="1">
          <mxGeometry x="393.75" y="510" width="60" height="30" as="geometry" />
        </mxCell>
        <mxCell id="pIXMn5RNcv90FsIHvOFB-55" value="http" style="text;strokeColor=none;align=center;fillColor=none;html=1;verticalAlign=middle;whiteSpace=wrap;rounded=0;" vertex="1" parent="1">
          <mxGeometry x="393.75" y="625" width="60" height="30" as="geometry" />
        </mxCell>
        <mxCell id="pIXMn5RNcv90FsIHvOFB-56" value="client n&lt;br&gt;" style="text;strokeColor=none;align=center;fillColor=none;html=1;verticalAlign=middle;whiteSpace=wrap;rounded=0;" vertex="1" parent="1">
          <mxGeometry x="310" y="625" width="60" height="30" as="geometry" />
        </mxCell>
        <mxCell id="pIXMn5RNcv90FsIHvOFB-57" value="client 1&lt;br&gt;" style="text;strokeColor=none;align=center;fillColor=none;html=1;verticalAlign=middle;whiteSpace=wrap;rounded=0;" vertex="1" parent="1">
          <mxGeometry x="310" y="505" width="60" height="30" as="geometry" />
        </mxCell>
        <mxCell id="pIXMn5RNcv90FsIHvOFB-61" value="payment&lt;br&gt;service" style="rounded=1;whiteSpace=wrap;html=1;" vertex="1" parent="1">
          <mxGeometry x="640" y="600" width="120" height="60" as="geometry" />
        </mxCell>
        <mxCell id="pIXMn5RNcv90FsIHvOFB-62" value="main&lt;br&gt;monolit" style="rounded=1;whiteSpace=wrap;html=1;" vertex="1" parent="1">
          <mxGeometry x="470" y="520" width="120" height="120" as="geometry" />
        </mxCell>
        <mxCell id="pIXMn5RNcv90FsIHvOFB-63" value="main&lt;br&gt;db" style="strokeWidth=2;html=1;shape=mxgraph.flowchart.database;whiteSpace=wrap;" vertex="1" parent="1">
          <mxGeometry x="500" y="690" width="60" height="80" as="geometry" />
        </mxCell>
        <mxCell id="pIXMn5RNcv90FsIHvOFB-64" value="payment&lt;br&gt;db" style="strokeWidth=2;html=1;shape=mxgraph.flowchart.database;whiteSpace=wrap;" vertex="1" parent="1">
          <mxGeometry x="670" y="485" width="60" height="80" as="geometry" />
        </mxCell>
        <mxCell id="pIXMn5RNcv90FsIHvOFB-67" value="amqp&lt;br&gt;" style="text;html=1;align=center;verticalAlign=middle;resizable=0;points=[];autosize=1;strokeColor=none;fillColor=none;rotation=45;" vertex="1" parent="1">
          <mxGeometry x="602" y="580" width="50" height="30" as="geometry" />
        </mxCell>
        <mxCell id="pIXMn5RNcv90FsIHvOFB-76" value="" style="endArrow=classic;startArrow=classic;html=1;rounded=0;entryX=0;entryY=0.622;entryDx=0;entryDy=0;entryPerimeter=0;exitX=1;exitY=0.5;exitDx=0;exitDy=0;" edge="1" parent="1" target="pIXMn5RNcv90FsIHvOFB-61">
          <mxGeometry width="50" height="50" relative="1" as="geometry">
            <mxPoint x="590" y="580" as="sourcePoint" />
            <mxPoint x="671" y="580" as="targetPoint" />
            <Array as="points" />
          </mxGeometry>
        </mxCell>
        <mxCell id="pIXMn5RNcv90FsIHvOFB-98" value="" style="endArrow=classic;startArrow=classic;html=1;rounded=0;exitX=0.422;exitY=1;exitDx=0;exitDy=0;exitPerimeter=0;" edge="1" parent="1" source="pIXMn5RNcv90FsIHvOFB-62">
          <mxGeometry width="50" height="50" relative="1" as="geometry">
            <mxPoint x="520" y="650" as="sourcePoint" />
            <mxPoint x="520" y="690" as="targetPoint" />
            <Array as="points" />
          </mxGeometry>
        </mxCell>
        <mxCell id="pIXMn5RNcv90FsIHvOFB-99" value="" style="endArrow=classic;startArrow=classic;html=1;rounded=0;exitX=1;exitY=0.25;exitDx=0;exitDy=0;" edge="1" parent="1" source="pIXMn5RNcv90FsIHvOFB-51">
          <mxGeometry width="50" height="50" relative="1" as="geometry">
            <mxPoint x="390" y="615" as="sourcePoint" />
            <mxPoint x="470" y="620" as="targetPoint" />
            <Array as="points" />
          </mxGeometry>
        </mxCell>
        <mxCell id="pIXMn5RNcv90FsIHvOFB-100" value="" style="endArrow=classic;startArrow=classic;html=1;rounded=0;exitX=1;exitY=0.25;exitDx=0;exitDy=0;" edge="1" parent="1">
          <mxGeometry width="50" height="50" relative="1" as="geometry">
            <mxPoint x="378.75" y="544" as="sourcePoint" />
            <mxPoint x="468.75" y="544" as="targetPoint" />
            <Array as="points" />
          </mxGeometry>
        </mxCell>
        <mxCell id="pIXMn5RNcv90FsIHvOFB-102" value="" style="endArrow=classic;startArrow=classic;html=1;rounded=0;exitX=0.422;exitY=1;exitDx=0;exitDy=0;exitPerimeter=0;" edge="1" parent="1">
          <mxGeometry width="50" height="50" relative="1" as="geometry">
            <mxPoint x="700.5" y="565" as="sourcePoint" />
            <mxPoint x="700" y="600" as="targetPoint" />
            <Array as="points" />
          </mxGeometry>
        </mxCell>
      </root>
    </mxGraphModel>
  </diagram>
</mxfile>
